<mxfile host="app.diagrams.net" modified="2022-05-18T00:56:18.511Z" agent="5.0 (Windows NT 10.0; WOW64) AppleWebKit/537.36 (KHTML, like Gecko) Chrome/86.0.4240.198 Safari/537.36" etag="-lsTVjc8F_Hma0FH4yXY" version="18.0.6" type="github">
  <diagram id="EgLmVubbu8Vb6Maufz2B" name="第 1 页">
    <mxGraphModel dx="1422" dy="761" grid="1" gridSize="10" guides="1" tooltips="1" connect="1" arrows="1" fold="1" page="1" pageScale="1" pageWidth="827" pageHeight="1169" math="0" shadow="0">
      <root>
        <mxCell id="0" />
        <mxCell id="1" parent="0" />
        <mxCell id="aMIJVQEnqt-QTCgnunVG-1" value="&lt;div style=&quot;text-align: left;&quot;&gt;&lt;span style=&quot;background-color: initial;&quot;&gt;服务端适配AB&lt;/span&gt;&lt;/div&gt;&lt;div style=&quot;text-align: left;&quot;&gt;&lt;span style=&quot;background-color: initial;&quot;&gt;即服务端都能感知到AB并执行不同的逻辑，需要后端在编码层实现&lt;/span&gt;&lt;/div&gt;" style="text;html=1;strokeColor=none;fillColor=none;align=center;verticalAlign=middle;whiteSpace=wrap;rounded=0;" vertex="1" parent="1">
          <mxGeometry y="50" width="400" height="30" as="geometry" />
        </mxCell>
        <mxCell id="aMIJVQEnqt-QTCgnunVG-4" style="edgeStyle=orthogonalEdgeStyle;rounded=0;orthogonalLoop=1;jettySize=auto;html=1;" edge="1" parent="1" source="aMIJVQEnqt-QTCgnunVG-2" target="aMIJVQEnqt-QTCgnunVG-3">
          <mxGeometry relative="1" as="geometry" />
        </mxCell>
        <mxCell id="aMIJVQEnqt-QTCgnunVG-5" value="http://XXXX/xxx.html&lt;br&gt;token=12345678" style="edgeLabel;html=1;align=center;verticalAlign=middle;resizable=0;points=[];" vertex="1" connectable="0" parent="aMIJVQEnqt-QTCgnunVG-4">
          <mxGeometry x="0.22" y="2" relative="1" as="geometry">
            <mxPoint as="offset" />
          </mxGeometry>
        </mxCell>
        <mxCell id="aMIJVQEnqt-QTCgnunVG-2" value="用户浏览器" style="rounded=1;whiteSpace=wrap;html=1;" vertex="1" parent="1">
          <mxGeometry x="310" y="130" width="120" height="60" as="geometry" />
        </mxCell>
        <mxCell id="aMIJVQEnqt-QTCgnunVG-8" value="" style="edgeStyle=orthogonalEdgeStyle;rounded=0;orthogonalLoop=1;jettySize=auto;html=1;" edge="1" parent="1" source="aMIJVQEnqt-QTCgnunVG-3" target="aMIJVQEnqt-QTCgnunVG-7">
          <mxGeometry relative="1" as="geometry" />
        </mxCell>
        <mxCell id="aMIJVQEnqt-QTCgnunVG-3" value="公网" style="ellipse;shape=cloud;whiteSpace=wrap;html=1;" vertex="1" parent="1">
          <mxGeometry x="310" y="290" width="120" height="80" as="geometry" />
        </mxCell>
        <mxCell id="aMIJVQEnqt-QTCgnunVG-6" value="" style="rounded=0;whiteSpace=wrap;html=1;" vertex="1" parent="1">
          <mxGeometry x="40" y="450" width="760" height="340" as="geometry" />
        </mxCell>
        <mxCell id="aMIJVQEnqt-QTCgnunVG-10" style="edgeStyle=orthogonalEdgeStyle;rounded=0;orthogonalLoop=1;jettySize=auto;html=1;exitX=0.5;exitY=1;exitDx=0;exitDy=0;entryX=0.5;entryY=0;entryDx=0;entryDy=0;" edge="1" parent="1" source="aMIJVQEnqt-QTCgnunVG-7" target="aMIJVQEnqt-QTCgnunVG-9">
          <mxGeometry relative="1" as="geometry" />
        </mxCell>
        <mxCell id="aMIJVQEnqt-QTCgnunVG-7" value="集群入口" style="rhombus;whiteSpace=wrap;html=1;" vertex="1" parent="1">
          <mxGeometry x="330" y="410" width="80" height="80" as="geometry" />
        </mxCell>
        <mxCell id="aMIJVQEnqt-QTCgnunVG-15" style="edgeStyle=orthogonalEdgeStyle;rounded=0;orthogonalLoop=1;jettySize=auto;html=1;exitX=0.5;exitY=1;exitDx=0;exitDy=0;entryX=0.5;entryY=0;entryDx=0;entryDy=0;" edge="1" parent="1" source="aMIJVQEnqt-QTCgnunVG-9" target="aMIJVQEnqt-QTCgnunVG-11">
          <mxGeometry relative="1" as="geometry">
            <Array as="points">
              <mxPoint x="370" y="600" />
              <mxPoint x="370" y="600" />
            </Array>
          </mxGeometry>
        </mxCell>
        <mxCell id="aMIJVQEnqt-QTCgnunVG-20" style="edgeStyle=orthogonalEdgeStyle;rounded=0;orthogonalLoop=1;jettySize=auto;html=1;exitX=1;exitY=0.5;exitDx=0;exitDy=0;startArrow=classic;startFill=1;curved=1;" edge="1" parent="1" source="aMIJVQEnqt-QTCgnunVG-9" target="aMIJVQEnqt-QTCgnunVG-19">
          <mxGeometry relative="1" as="geometry" />
        </mxCell>
        <mxCell id="aMIJVQEnqt-QTCgnunVG-9" value="业务网关" style="rounded=0;whiteSpace=wrap;html=1;" vertex="1" parent="1">
          <mxGeometry x="310" y="510" width="120" height="60" as="geometry" />
        </mxCell>
        <mxCell id="aMIJVQEnqt-QTCgnunVG-11" value="" style="rounded=0;whiteSpace=wrap;html=1;" vertex="1" parent="1">
          <mxGeometry x="140" y="610" width="460" height="170" as="geometry" />
        </mxCell>
        <mxCell id="aMIJVQEnqt-QTCgnunVG-12" value="activity1" style="rounded=0;whiteSpace=wrap;html=1;" vertex="1" parent="1">
          <mxGeometry x="170" y="645" width="120" height="110" as="geometry" />
        </mxCell>
        <mxCell id="aMIJVQEnqt-QTCgnunVG-13" value="&lt;span style=&quot;&quot;&gt;activity2&lt;/span&gt;" style="rounded=0;whiteSpace=wrap;html=1;" vertex="1" parent="1">
          <mxGeometry x="310" y="644" width="120" height="110" as="geometry" />
        </mxCell>
        <mxCell id="aMIJVQEnqt-QTCgnunVG-14" value="&lt;span style=&quot;&quot;&gt;activity3&lt;/span&gt;" style="rounded=0;whiteSpace=wrap;html=1;" vertex="1" parent="1">
          <mxGeometry x="460" y="645" width="120" height="110" as="geometry" />
        </mxCell>
        <mxCell id="aMIJVQEnqt-QTCgnunVG-18" value="转发请求，并在请求中携带AB" style="text;html=1;strokeColor=none;fillColor=none;align=center;verticalAlign=middle;whiteSpace=wrap;rounded=0;" vertex="1" parent="1">
          <mxGeometry x="370" y="580" width="190" height="30" as="geometry" />
        </mxCell>
        <mxCell id="aMIJVQEnqt-QTCgnunVG-19" value="用户中心" style="rounded=0;whiteSpace=wrap;html=1;" vertex="1" parent="1">
          <mxGeometry x="640" y="660" width="120" height="60" as="geometry" />
        </mxCell>
      </root>
    </mxGraphModel>
  </diagram>
</mxfile>
